# xmcd CD database file
#
# Track frame offsets:
#	150
#	24986
#	66350
#	90008
#	121058
#	158163
#	166592
#	201688
#	220640
#
# Disc length: 3386 seconds
#
# Revision: 0
# Processed by: cddbd v1.5.2PL0 Copyright (c) Steve Scherf et al.
# Submitted via: CDex 1.51
#
DISCID=690d3809
DTITLE=Akki Haak Band - La Dormeuse
DYEAR=1996
DGENRE=Jazz
TTITLE0=Mr Xctng thn GTST
TTITLE1=La Dormeuse
TTITLE2=Aripotakia and Full Moon
TTITLE3=Feu Feu
TTITLE4=Fasank
TTITLE5=In time of Daffodils
TTITLE6=Ernie likes Jazz
TTITLE7=Death and the Maiden
TTITLE8=The Bull
EXTD=YEAR: 1996
EXTT0=
EXTT1=
EXTT2=
EXTT3=
EXTT4=
EXTT5=
EXTT6=
EXTT7=
EXTT8=
PLAYORDER=
